<mxfile host="app.diagrams.net" modified="2022-04-04T10:35:06.321Z" agent="5.0 (Windows NT 10.0; Win64; x64) AppleWebKit/537.36 (KHTML, like Gecko) Chrome/98.0.4758.119 YaBrowser/22.3.0.2430 Yowser/2.5 Safari/537.36" etag="KmMcYYARy3dbZhRMIwiO" version="17.4.0" type="github">
  <diagram id="Uv24wQC3k0ADvUixZxiF" name="Page-1">
    <mxGraphModel dx="1203" dy="714" grid="1" gridSize="10" guides="1" tooltips="1" connect="1" arrows="1" fold="1" page="1" pageScale="1" pageWidth="827" pageHeight="1169" math="0" shadow="0">
      <root>
        <mxCell id="0" />
        <mxCell id="1" parent="0" />
        <mxCell id="DAWXcX9yZgNlRV36-ZRS-1" value="&lt;h1 style=&quot;font-size: 24px&quot;&gt;&lt;font face=&quot;Times New Roman&quot;&gt;&lt;span style=&quot;font-weight: normal&quot;&gt;номер скидки&lt;br&gt;скидка&lt;br&gt;заказы за год&lt;/span&gt;&lt;/font&gt;&lt;/h1&gt;" style="rounded=0;whiteSpace=wrap;html=1;strokeColor=#000000;align=left;fontStyle=0;fontSize=24;verticalAlign=top;" vertex="1" parent="1">
          <mxGeometry x="190" y="230" width="160" height="110" as="geometry" />
        </mxCell>
        <mxCell id="DAWXcX9yZgNlRV36-ZRS-4" value="" style="shape=link;html=1;rounded=0;fontFamily=Times New Roman;fontSize=24;entryX=1;entryY=0.5;entryDx=0;entryDy=0;exitX=0;exitY=0.5;exitDx=0;exitDy=0;" edge="1" parent="1" source="DAWXcX9yZgNlRV36-ZRS-1" target="DAWXcX9yZgNlRV36-ZRS-1">
          <mxGeometry width="100" relative="1" as="geometry">
            <mxPoint x="330" y="250" as="sourcePoint" />
            <mxPoint x="430" y="250" as="targetPoint" />
          </mxGeometry>
        </mxCell>
        <mxCell id="DAWXcX9yZgNlRV36-ZRS-5" value="&lt;div&gt;&lt;span style=&quot;font-weight: 400&quot;&gt;номер роли&lt;br&gt;название&lt;/span&gt;&lt;/div&gt;" style="whiteSpace=wrap;html=1;aspect=fixed;fontFamily=Times New Roman;fontSize=24;strokeColor=#000000;align=left;fontStyle=1" vertex="1" parent="1">
          <mxGeometry x="430" y="177.5" width="125" height="125" as="geometry" />
        </mxCell>
        <mxCell id="DAWXcX9yZgNlRV36-ZRS-6" value="" style="shape=link;html=1;rounded=0;fontFamily=Times New Roman;fontSize=24;entryX=1;entryY=0.5;entryDx=0;entryDy=0;exitX=0;exitY=0.5;exitDx=0;exitDy=0;" edge="1" parent="1" source="DAWXcX9yZgNlRV36-ZRS-5" target="DAWXcX9yZgNlRV36-ZRS-5">
          <mxGeometry width="100" relative="1" as="geometry">
            <mxPoint x="330" y="270" as="sourcePoint" />
            <mxPoint x="430" y="270" as="targetPoint" />
          </mxGeometry>
        </mxCell>
        <mxCell id="DAWXcX9yZgNlRV36-ZRS-8" value="номер статуса&lt;br&gt;название" style="whiteSpace=wrap;html=1;aspect=fixed;fontFamily=Times New Roman;fontSize=24;strokeColor=#000000;fontStyle=0;align=left;verticalAlign=top;" vertex="1" parent="1">
          <mxGeometry x="630" y="182.5" width="130" height="130" as="geometry" />
        </mxCell>
        <mxCell id="DAWXcX9yZgNlRV36-ZRS-9" value="" style="shape=link;html=1;rounded=0;fontFamily=Times New Roman;fontSize=24;entryX=1;entryY=0.5;entryDx=0;entryDy=0;exitX=0;exitY=0.5;exitDx=0;exitDy=0;" edge="1" parent="1" source="DAWXcX9yZgNlRV36-ZRS-8" target="DAWXcX9yZgNlRV36-ZRS-8">
          <mxGeometry width="100" relative="1" as="geometry">
            <mxPoint x="440" y="250" as="sourcePoint" />
            <mxPoint x="540" y="250" as="targetPoint" />
          </mxGeometry>
        </mxCell>
        <mxCell id="DAWXcX9yZgNlRV36-ZRS-10" value="&lt;span style=&quot;font-weight: 400&quot;&gt;номер пользователя&lt;br&gt;имя&lt;br&gt;фамилия&lt;br&gt;логин&lt;br&gt;пароль&lt;br&gt;почта&lt;br&gt;телефон&lt;br&gt;дата рождения&lt;br&gt;номер скидки (FK)&lt;br&gt;номер статуса (FK)&lt;br&gt;номер заказа (FK)&lt;br&gt;&lt;/span&gt;" style="rounded=0;whiteSpace=wrap;html=1;fontFamily=Times New Roman;fontSize=24;strokeColor=#000000;verticalAlign=top;fontStyle=1;align=left;" vertex="1" parent="1">
          <mxGeometry x="595" y="380" width="200" height="420" as="geometry" />
        </mxCell>
        <mxCell id="DAWXcX9yZgNlRV36-ZRS-11" value="" style="shape=link;html=1;rounded=0;fontFamily=Times New Roman;fontSize=24;entryX=1;entryY=0.169;entryDx=0;entryDy=0;entryPerimeter=0;exitX=-0.004;exitY=0.169;exitDx=0;exitDy=0;exitPerimeter=0;" edge="1" parent="1" source="DAWXcX9yZgNlRV36-ZRS-10" target="DAWXcX9yZgNlRV36-ZRS-10">
          <mxGeometry width="100" relative="1" as="geometry">
            <mxPoint x="510" y="480" as="sourcePoint" />
            <mxPoint x="610" y="480" as="targetPoint" />
          </mxGeometry>
        </mxCell>
        <mxCell id="DAWXcX9yZgNlRV36-ZRS-12" value="Скидки&lt;br&gt;пользователя" style="text;html=1;strokeColor=none;fillColor=none;align=left;verticalAlign=middle;whiteSpace=wrap;rounded=0;fontFamily=Times New Roman;fontSize=24;fontStyle=1" vertex="1" parent="1">
          <mxGeometry x="190" y="180" width="150" height="50" as="geometry" />
        </mxCell>
        <mxCell id="DAWXcX9yZgNlRV36-ZRS-13" value="Роли" style="text;html=1;strokeColor=none;fillColor=none;align=left;verticalAlign=middle;whiteSpace=wrap;rounded=0;fontFamily=Times New Roman;fontSize=24;fontStyle=1" vertex="1" parent="1">
          <mxGeometry x="430" y="147.5" width="60" height="37.5" as="geometry" />
        </mxCell>
        <mxCell id="DAWXcX9yZgNlRV36-ZRS-14" value="Статус" style="text;html=1;strokeColor=none;fillColor=none;align=left;verticalAlign=middle;whiteSpace=wrap;rounded=0;fontFamily=Times New Roman;fontSize=24;fontStyle=1" vertex="1" parent="1">
          <mxGeometry x="630" y="147.5" width="80" height="37.5" as="geometry" />
        </mxCell>
        <mxCell id="DAWXcX9yZgNlRV36-ZRS-15" value="Пользователи" style="text;html=1;strokeColor=none;fillColor=none;align=center;verticalAlign=middle;whiteSpace=wrap;rounded=0;fontFamily=Times New Roman;fontSize=24;fontStyle=1" vertex="1" parent="1">
          <mxGeometry x="595" y="350" width="150" height="30" as="geometry" />
        </mxCell>
        <mxCell id="DAWXcX9yZgNlRV36-ZRS-17" value="номер отзыва&lt;br&gt;содержание&lt;br&gt;дата" style="rounded=0;whiteSpace=wrap;html=1;fontFamily=Times New Roman;fontSize=24;strokeColor=#000000;align=left;verticalAlign=top;" vertex="1" parent="1">
          <mxGeometry x="320" y="620" width="190" height="190" as="geometry" />
        </mxCell>
        <mxCell id="DAWXcX9yZgNlRV36-ZRS-18" value="" style="shape=link;html=1;rounded=0;fontFamily=Times New Roman;fontSize=24;exitX=0.012;exitY=0.185;exitDx=0;exitDy=0;entryX=1.005;entryY=0.191;entryDx=0;entryDy=0;exitPerimeter=0;entryPerimeter=0;" edge="1" parent="1" source="DAWXcX9yZgNlRV36-ZRS-17" target="DAWXcX9yZgNlRV36-ZRS-17">
          <mxGeometry width="100" relative="1" as="geometry">
            <mxPoint x="510" y="830" as="sourcePoint" />
            <mxPoint x="610" y="830" as="targetPoint" />
          </mxGeometry>
        </mxCell>
        <mxCell id="DAWXcX9yZgNlRV36-ZRS-19" value="номер отзыва (FK)" style="text;html=1;strokeColor=none;fillColor=none;align=left;verticalAlign=middle;whiteSpace=wrap;rounded=0;fontFamily=Times New Roman;fontSize=24;" vertex="1" parent="1">
          <mxGeometry x="595" y="730" width="200" height="30" as="geometry" />
        </mxCell>
        <mxCell id="DAWXcX9yZgNlRV36-ZRS-20" value="Отзывы" style="text;html=1;strokeColor=none;fillColor=none;align=center;verticalAlign=middle;whiteSpace=wrap;rounded=0;fontFamily=Times New Roman;fontSize=24;fontStyle=1" vertex="1" parent="1">
          <mxGeometry x="320" y="590" width="90" height="30" as="geometry" />
        </mxCell>
        <mxCell id="DAWXcX9yZgNlRV36-ZRS-21" value="номер заказа&lt;br&gt;дата&amp;nbsp;&lt;br&gt;статус&lt;br&gt;тип оплаты&lt;br&gt;комментарий&lt;br&gt;адрес&lt;br&gt;цена&lt;br&gt;номер пользователя (FK)" style="rounded=0;whiteSpace=wrap;html=1;fontFamily=Times New Roman;fontSize=24;strokeColor=#000000;align=left;" vertex="1" parent="1">
          <mxGeometry x="20" y="430" width="200" height="270" as="geometry" />
        </mxCell>
        <mxCell id="DAWXcX9yZgNlRV36-ZRS-23" value="" style="shape=link;html=1;rounded=0;fontFamily=Times New Roman;fontSize=24;" edge="1" parent="1">
          <mxGeometry width="100" relative="1" as="geometry">
            <mxPoint x="20" y="470" as="sourcePoint" />
            <mxPoint x="220" y="470" as="targetPoint" />
          </mxGeometry>
        </mxCell>
        <mxCell id="DAWXcX9yZgNlRV36-ZRS-24" value="Заказы" style="text;html=1;strokeColor=none;fillColor=none;align=left;verticalAlign=middle;whiteSpace=wrap;rounded=0;fontFamily=Times New Roman;fontSize=24;fontStyle=1" vertex="1" parent="1">
          <mxGeometry x="20" y="390" width="60" height="30" as="geometry" />
        </mxCell>
        <mxCell id="DAWXcX9yZgNlRV36-ZRS-25" value="номер продукта&lt;br&gt;название&lt;br&gt;рисунок&lt;br&gt;состав&lt;br&gt;вес&lt;br&gt;калории&lt;br&gt;время&lt;br&gt;скидка&lt;br&gt;цена&lt;br&gt;номер раздела (FK)" style="rounded=0;whiteSpace=wrap;html=1;fontFamily=Times New Roman;fontSize=24;strokeColor=#000000;align=left;" vertex="1" parent="1">
          <mxGeometry x="340" y="850" width="220" height="310" as="geometry" />
        </mxCell>
        <mxCell id="DAWXcX9yZgNlRV36-ZRS-26" value="" style="shape=link;html=1;rounded=0;fontFamily=Times New Roman;fontSize=24;entryX=1.007;entryY=0.143;entryDx=0;entryDy=0;entryPerimeter=0;exitX=-0.01;exitY=0.14;exitDx=0;exitDy=0;exitPerimeter=0;" edge="1" parent="1" source="DAWXcX9yZgNlRV36-ZRS-25" target="DAWXcX9yZgNlRV36-ZRS-25">
          <mxGeometry width="100" relative="1" as="geometry">
            <mxPoint x="300" y="930" as="sourcePoint" />
            <mxPoint x="400" y="930" as="targetPoint" />
          </mxGeometry>
        </mxCell>
        <mxCell id="DAWXcX9yZgNlRV36-ZRS-27" value="&lt;b&gt;Меню&lt;/b&gt;" style="text;html=1;strokeColor=none;fillColor=none;align=left;verticalAlign=middle;whiteSpace=wrap;rounded=0;fontFamily=Times New Roman;fontSize=24;" vertex="1" parent="1">
          <mxGeometry x="340" y="820" width="60" height="30" as="geometry" />
        </mxCell>
        <mxCell id="DAWXcX9yZgNlRV36-ZRS-64" style="edgeStyle=elbowEdgeStyle;rounded=0;orthogonalLoop=1;jettySize=auto;html=1;exitX=1;exitY=0.553;exitDx=0;exitDy=0;entryX=0;entryY=0.75;entryDx=0;entryDy=0;fontFamily=Times New Roman;fontSize=24;startArrow=oval;startFill=1;endArrow=oval;endFill=0;strokeColor=default;exitPerimeter=0;" edge="1" parent="1" source="DAWXcX9yZgNlRV36-ZRS-25" target="DAWXcX9yZgNlRV36-ZRS-28">
          <mxGeometry relative="1" as="geometry" />
        </mxCell>
        <mxCell id="DAWXcX9yZgNlRV36-ZRS-28" value="номер раздела&lt;br&gt;название" style="rounded=0;whiteSpace=wrap;html=1;fontFamily=Times New Roman;fontSize=24;strokeColor=#000000;align=left;" vertex="1" parent="1">
          <mxGeometry x="630" y="945" width="165" height="75" as="geometry" />
        </mxCell>
        <mxCell id="DAWXcX9yZgNlRV36-ZRS-29" value="" style="shape=link;html=1;rounded=0;fontFamily=Times New Roman;fontSize=24;entryX=1;entryY=0.5;entryDx=0;entryDy=0;exitX=0;exitY=0.5;exitDx=0;exitDy=0;" edge="1" parent="1" source="DAWXcX9yZgNlRV36-ZRS-28" target="DAWXcX9yZgNlRV36-ZRS-28">
          <mxGeometry width="100" relative="1" as="geometry">
            <mxPoint x="300" y="940" as="sourcePoint" />
            <mxPoint x="400" y="940" as="targetPoint" />
          </mxGeometry>
        </mxCell>
        <mxCell id="DAWXcX9yZgNlRV36-ZRS-31" value="Разделы" style="text;html=1;strokeColor=none;fillColor=none;align=left;verticalAlign=middle;whiteSpace=wrap;rounded=0;fontFamily=Times New Roman;fontSize=24;fontStyle=1" vertex="1" parent="1">
          <mxGeometry x="630" y="915" width="60" height="30" as="geometry" />
        </mxCell>
        <mxCell id="DAWXcX9yZgNlRV36-ZRS-32" value="состав заказа&lt;br&gt;номер заказа (FK)&lt;br&gt;номер продукта (FK)" style="rounded=0;whiteSpace=wrap;html=1;fontFamily=Times New Roman;fontSize=24;strokeColor=#000000;align=left;" vertex="1" parent="1">
          <mxGeometry x="50" y="915" width="180" height="145" as="geometry" />
        </mxCell>
        <mxCell id="DAWXcX9yZgNlRV36-ZRS-33" value="Состав заказа" style="text;html=1;strokeColor=none;fillColor=none;align=left;verticalAlign=middle;whiteSpace=wrap;rounded=0;fontFamily=Times New Roman;fontSize=24;fontStyle=1" vertex="1" parent="1">
          <mxGeometry x="50" y="885" width="190" height="30" as="geometry" />
        </mxCell>
        <mxCell id="DAWXcX9yZgNlRV36-ZRS-38" value="номер пользователя (FK)" style="text;html=1;strokeColor=none;fillColor=none;align=left;verticalAlign=middle;whiteSpace=wrap;rounded=0;fontFamily=Times New Roman;fontSize=24;" vertex="1" parent="1">
          <mxGeometry x="320" y="700" width="190" height="90" as="geometry" />
        </mxCell>
        <mxCell id="DAWXcX9yZgNlRV36-ZRS-41" value="" style="endArrow=none;html=1;rounded=0;fontFamily=Times New Roman;fontSize=24;entryX=1;entryY=0.75;entryDx=0;entryDy=0;exitX=-0.007;exitY=0.306;exitDx=0;exitDy=0;exitPerimeter=0;edgeStyle=orthogonalEdgeStyle;startArrow=none;" edge="1" parent="1" target="DAWXcX9yZgNlRV36-ZRS-1">
          <mxGeometry width="50" height="50" relative="1" as="geometry">
            <mxPoint x="349.93000000000006" y="305.56000000000006" as="sourcePoint" />
            <mxPoint x="370" y="500" as="targetPoint" />
          </mxGeometry>
        </mxCell>
        <mxCell id="DAWXcX9yZgNlRV36-ZRS-54" value="" style="endArrow=oval;html=1;rounded=0;fontFamily=Times New Roman;fontSize=24;edgeStyle=orthogonalEdgeStyle;elbow=vertical;exitX=0;exitY=0.25;exitDx=0;exitDy=0;strokeColor=default;startArrow=oval;startFill=1;endFill=0;" edge="1" parent="1" source="DAWXcX9yZgNlRV36-ZRS-10">
          <mxGeometry width="50" height="50" relative="1" as="geometry">
            <mxPoint x="550" y="480" as="sourcePoint" />
            <mxPoint x="560" y="270" as="targetPoint" />
            <Array as="points">
              <mxPoint x="550" y="485" />
              <mxPoint x="550" y="360" />
              <mxPoint x="595" y="360" />
            </Array>
          </mxGeometry>
        </mxCell>
        <mxCell id="DAWXcX9yZgNlRV36-ZRS-56" value="" style="endArrow=oval;html=1;rounded=0;fontFamily=Times New Roman;fontSize=24;strokeColor=default;elbow=vertical;entryX=1.008;entryY=0.654;entryDx=0;entryDy=0;entryPerimeter=0;exitX=1;exitY=0.25;exitDx=0;exitDy=0;edgeStyle=orthogonalEdgeStyle;startArrow=oval;startFill=1;endFill=0;" edge="1" parent="1" source="DAWXcX9yZgNlRV36-ZRS-10" target="DAWXcX9yZgNlRV36-ZRS-8">
          <mxGeometry width="50" height="50" relative="1" as="geometry">
            <mxPoint x="320" y="480" as="sourcePoint" />
            <mxPoint x="370" y="430" as="targetPoint" />
          </mxGeometry>
        </mxCell>
        <mxCell id="DAWXcX9yZgNlRV36-ZRS-57" value="" style="endArrow=oval;html=1;rounded=0;fontFamily=Times New Roman;fontSize=24;strokeColor=default;exitX=1;exitY=0.75;exitDx=0;exitDy=0;edgeStyle=elbowEdgeStyle;entryX=0;entryY=0.326;entryDx=0;entryDy=0;entryPerimeter=0;startArrow=oval;startFill=0;endFill=1;" edge="1" parent="1" source="DAWXcX9yZgNlRV36-ZRS-1" target="DAWXcX9yZgNlRV36-ZRS-10">
          <mxGeometry width="50" height="50" relative="1" as="geometry">
            <mxPoint x="320" y="480" as="sourcePoint" />
            <mxPoint x="370" y="430" as="targetPoint" />
          </mxGeometry>
        </mxCell>
        <mxCell id="DAWXcX9yZgNlRV36-ZRS-58" value="" style="endArrow=oval;html=1;rounded=0;fontFamily=Times New Roman;fontSize=24;strokeColor=default;exitX=1;exitY=0;exitDx=0;exitDy=0;edgeStyle=elbowEdgeStyle;endFill=0;startArrow=oval;startFill=1;" edge="1" parent="1" source="DAWXcX9yZgNlRV36-ZRS-38" target="DAWXcX9yZgNlRV36-ZRS-10">
          <mxGeometry width="50" height="50" relative="1" as="geometry">
            <mxPoint x="320" y="480" as="sourcePoint" />
            <mxPoint x="370" y="430" as="targetPoint" />
          </mxGeometry>
        </mxCell>
        <mxCell id="DAWXcX9yZgNlRV36-ZRS-59" value="" style="endArrow=oval;html=1;rounded=0;fontFamily=Times New Roman;fontSize=24;strokeColor=default;entryX=0.01;entryY=0.455;entryDx=0;entryDy=0;entryPerimeter=0;exitX=1;exitY=0.5;exitDx=0;exitDy=0;edgeStyle=elbowEdgeStyle;endFill=0;startArrow=oval;startFill=1;" edge="1" parent="1" source="DAWXcX9yZgNlRV36-ZRS-21" target="DAWXcX9yZgNlRV36-ZRS-10">
          <mxGeometry width="50" height="50" relative="1" as="geometry">
            <mxPoint x="320" y="630" as="sourcePoint" />
            <mxPoint x="370" y="580" as="targetPoint" />
          </mxGeometry>
        </mxCell>
        <mxCell id="DAWXcX9yZgNlRV36-ZRS-60" value="" style="endArrow=oval;html=1;rounded=0;fontFamily=Times New Roman;fontSize=24;strokeColor=default;exitX=1.008;exitY=0.811;exitDx=0;exitDy=0;exitPerimeter=0;entryX=1;entryY=0.25;entryDx=0;entryDy=0;edgeStyle=elbowEdgeStyle;startArrow=oval;startFill=0;endFill=1;" edge="1" parent="1" source="DAWXcX9yZgNlRV36-ZRS-21" target="DAWXcX9yZgNlRV36-ZRS-32">
          <mxGeometry width="50" height="50" relative="1" as="geometry">
            <mxPoint x="320" y="870" as="sourcePoint" />
            <mxPoint x="370" y="820" as="targetPoint" />
            <Array as="points">
              <mxPoint x="260" y="800" />
            </Array>
          </mxGeometry>
        </mxCell>
        <mxCell id="DAWXcX9yZgNlRV36-ZRS-62" value="" style="endArrow=oval;html=1;rounded=0;fontFamily=Times New Roman;fontSize=24;strokeColor=default;exitX=1;exitY=0.5;exitDx=0;exitDy=0;edgeStyle=elbowEdgeStyle;startArrow=oval;startFill=1;endFill=0;" edge="1" parent="1" source="DAWXcX9yZgNlRV36-ZRS-32" target="DAWXcX9yZgNlRV36-ZRS-25">
          <mxGeometry width="50" height="50" relative="1" as="geometry">
            <mxPoint x="320" y="870" as="sourcePoint" />
            <mxPoint x="370" y="820" as="targetPoint" />
          </mxGeometry>
        </mxCell>
      </root>
    </mxGraphModel>
  </diagram>
</mxfile>
